# Blender v2.79 (sub 0) OBJ File: 'dungeon_wall.blend'
# www.blender.org
o Cube
v 0.000000 0.000000 0.125000
v 0.000000 2.500000 0.125000
v 0.000000 0.000000 -0.125000
v 0.000000 2.500000 -0.125000
v 3.000000 0.000000 0.125000
v 3.000000 2.500000 0.125000
v 3.000000 0.000000 -0.125000
v 3.000000 2.500000 -0.125000
vt 0.200027 0.000045
vt 0.200027 0.999955
vt 0.000045 0.999955
vt 0.000045 0.000045
vt 0.000000 1.000000
vt 0.000000 0.000000
vt 1.000000 0.000000
vt 1.000000 1.000000
vt 0.200027 0.000045
vt 0.200027 0.999955
vt 0.000045 0.999955
vt 0.000045 0.000045
vt 0.000000 1.000000
vt 0.000000 0.000000
vt 1.000000 0.000000
vt 1.000000 1.000000
vt 1.000000 0.000000
vt 1.000000 1.000000
vt 0.000000 1.000000
vt 0.999959 0.166694
vt 0.000041 0.166694
vt 0.000041 0.000041
vt 0.999959 0.000041
vn -1.0000 0.0000 0.0000
vn 0.0000 0.0000 -1.0000
vn 1.0000 0.0000 0.0000
vn 0.0000 0.0000 1.0000
vn 0.0000 -1.0000 0.0000
vn 0.0000 1.0000 0.0000
s off
f 1/1/1 2/2/1 4/3/1 3/4/1
f 3/5/2 4/6/2 8/7/2 7/8/2
f 7/9/3 8/10/3 6/11/3 5/12/3
f 5/13/4 6/14/4 2/15/4 1/16/4
f 3/4/5 7/17/5 5/18/5 1/19/5
f 8/20/6 4/21/6 2/22/6 6/23/6
