# Blender v2.79 (sub 0) OBJ File: 'mural.blend'
# www.blender.org
o Cylinder_Cylinder.001
v 0.000000 0.000000 -0.250000
v 0.000000 0.079446 -0.250000
v 0.125000 0.000000 -0.216506
v 0.125000 0.079446 -0.216506
v 0.216506 0.000000 -0.125000
v 0.216506 0.079446 -0.125000
v 0.250000 0.000000 0.000000
v 0.250000 0.079446 0.000000
v 0.216506 0.000000 0.125000
v 0.216506 0.079446 0.125000
v 0.125000 0.000000 0.216506
v 0.125000 0.079446 0.216506
v 0.000000 0.000000 0.250000
v 0.000000 0.079446 0.250000
v -0.125000 0.000000 0.216506
v -0.125000 0.079446 0.216506
v -0.216506 0.000000 0.125000
v -0.216506 0.079446 0.125000
v -0.250000 0.000000 0.000000
v -0.250000 0.079446 0.000000
v -0.216506 0.000000 -0.125000
v -0.216506 0.079446 -0.125000
v -0.125000 0.000000 -0.216506
v -0.125000 0.079446 -0.216506
vn 0.2588 0.0000 -0.9659
vn 0.7071 0.0000 -0.7071
vn 0.9659 0.0000 -0.2588
vn 0.9659 0.0000 0.2588
vn 0.7071 0.0000 0.7071
vn 0.2588 0.0000 0.9659
vn -0.2588 0.0000 0.9659
vn -0.7071 0.0000 0.7071
vn -0.9659 0.0000 0.2588
vn -0.9659 0.0000 -0.2588
vn 0.0000 1.0000 -0.0000
vn -0.7071 0.0000 -0.7071
vn -0.2588 0.0000 -0.9659
vn 0.0000 -1.0000 0.0000
s off
f 1//1 2//1 4//1 3//1
f 3//2 4//2 6//2 5//2
f 5//3 6//3 8//3 7//3
f 7//4 8//4 10//4 9//4
f 9//5 10//5 12//5 11//5
f 11//6 12//6 14//6 13//6
f 13//7 14//7 16//7 15//7
f 15//8 16//8 18//8 17//8
f 17//9 18//9 20//9 19//9
f 19//10 20//10 22//10 21//10
f 10//11 8//11 22//11 20//11
f 21//12 22//12 24//12 23//12
f 23//13 24//13 2//13 1//13
f 7//14 9//14 19//14 21//14
f 12//11 10//11 20//11 18//11
f 14//11 12//11 18//11 16//11
f 8//11 6//11 24//11 22//11
f 2//11 24//11 6//11 4//11
f 9//14 11//14 17//14 19//14
f 11//14 13//14 15//14 17//14
f 5//14 7//14 21//14 23//14
f 1//14 3//14 5//14 23//14
