# Blender v2.79 (sub 0) OBJ File: 'wall_corner.blend'
# www.blender.org
o Cylinder
v -0.000000 0.000000 -0.250000
v -0.000000 2.500000 -0.250000
v 0.125000 0.000000 -0.216506
v 0.125000 2.500000 -0.216506
v 0.216506 0.000000 -0.125000
v 0.216506 2.500000 -0.125000
v 0.250000 0.000000 0.000000
v 0.250000 2.500000 0.000000
v 0.216506 0.000000 0.125000
v 0.216506 2.500000 0.125000
v 0.125000 0.000000 0.216506
v 0.125000 2.500000 0.216506
v 0.000000 0.000000 0.250000
v 0.000000 2.500000 0.250000
v -0.125000 0.000000 0.216506
v -0.125000 2.500000 0.216506
v -0.216506 0.000000 0.125000
v -0.216506 2.500000 0.125000
v -0.250000 0.000000 0.000000
v -0.250000 2.500000 0.000000
v -0.216506 0.000000 -0.125000
v -0.216506 2.500000 -0.125000
v -0.125000 0.000000 -0.216506
v -0.125000 2.500000 -0.216506
vt 0.258875 0.000118
vt 0.258876 0.999883
vt 0.207124 0.999883
vt 0.207124 0.000118
vt 0.155372 0.999883
vt 0.155372 0.000118
vt 0.103621 0.999883
vt 0.103621 0.000118
vt 0.051869 0.999883
vt 0.051870 0.000118
vt 0.000117 0.999883
vt 0.000118 0.000118
vt 0.621136 0.000117
vt 0.621137 0.999882
vt 0.569385 0.999882
vt 0.569384 0.000118
vt 0.517634 0.999882
vt 0.517633 0.000118
vt 0.465882 0.999882
vt 0.465881 0.000118
vt 0.414131 0.999882
vt 0.414130 0.000118
vt 0.362379 0.999883
vt 0.362378 0.000118
vt 0.743818 0.193257
vt 0.692066 0.193257
vt 0.647248 0.167381
vt 0.621372 0.122563
vt 0.621372 0.070811
vt 0.647248 0.025993
vt 0.692066 0.000117
vt 0.743818 0.000117
vt 0.788636 0.025993
vt 0.814511 0.070811
vt 0.814512 0.122563
vt 0.788636 0.167381
vt 0.310627 0.999883
vt 0.310627 0.000118
vt 0.743818 0.193492
vt 0.788636 0.219368
vt 0.814512 0.264186
vt 0.814512 0.315937
vt 0.788636 0.360756
vt 0.743818 0.386631
vt 0.692066 0.386631
vt 0.647248 0.360756
vt 0.621372 0.315937
vt 0.621372 0.264186
vt 0.647248 0.219368
vt 0.692066 0.193492
vn 0.2588 0.0000 -0.9659
vn 0.7071 0.0000 -0.7071
vn 0.9659 0.0000 -0.2588
vn 0.9659 0.0000 0.2588
vn 0.7071 0.0000 0.7071
vn 0.2588 0.0000 0.9659
vn -0.2588 0.0000 0.9659
vn -0.7071 0.0000 0.7071
vn -0.9659 0.0000 0.2588
vn -0.9659 0.0000 -0.2588
vn 0.0000 1.0000 -0.0000
vn -0.7071 0.0000 -0.7071
vn -0.2588 0.0000 -0.9659
vn 0.0000 -1.0000 0.0000
s off
f 1/1/1 2/2/1 4/3/1 3/4/1
f 3/4/2 4/3/2 6/5/2 5/6/2
f 5/6/3 6/5/3 8/7/3 7/8/3
f 7/8/4 8/7/4 10/9/4 9/10/4
f 9/10/5 10/9/5 12/11/5 11/12/5
f 11/13/6 12/14/6 14/15/6 13/16/6
f 13/16/7 14/15/7 16/17/7 15/18/7
f 15/18/8 16/17/8 18/19/8 17/20/8
f 17/20/9 18/19/9 20/21/9 19/22/9
f 19/22/10 20/21/10 22/23/10 21/24/10
f 4/25/11 2/26/11 24/27/11 22/28/11 20/29/11 18/30/11 16/31/11 14/32/11 12/33/11 10/34/11 8/35/11 6/36/11
f 21/24/12 22/23/12 24/37/12 23/38/12
f 23/38/13 24/37/13 2/2/13 1/1/13
f 1/39/14 3/40/14 5/41/14 7/42/14 9/43/14 11/44/14 13/45/14 15/46/14 17/47/14 19/48/14 21/49/14 23/50/14
