# Blender v2.79 (sub 0) OBJ File: 'dungeon_door.blend'
# www.blender.org
o door_Cube.003
v 0.500000 -0.000000 0.100000
v 0.500000 2.000000 0.100000
v 0.500000 -0.000000 -0.100000
v 0.500000 2.000000 -0.100000
v 2.500000 -0.000000 0.100000
v 2.500000 2.000000 0.100000
v 2.500000 -0.000000 -0.100000
v 2.500000 2.000000 -0.100000
vt 0.100026 0.000032
vt 0.100025 0.999968
vt 0.000032 0.999968
vt 0.000032 0.000032
vt 0.999800 -0.000000
vt 0.999800 0.999800
vt 0.000000 0.999800
vt -0.000000 0.000000
vt 0.100026 0.000032
vt 0.100025 0.999968
vt 0.000032 0.999968
vt 0.000032 0.000032
vt 0.999800 -0.000000
vt 0.999800 0.999800
vt 0.000000 0.999800
vt -0.000000 0.000000
vt 0.999968 0.100026
vt 0.000032 0.100025
vt 0.999968 0.000032
vt 0.999968 0.100026
vt 0.000032 0.100025
vt 0.000032 0.000032
vt 0.999968 0.000032
vn -1.0000 0.0000 0.0000
vn 0.0000 0.0000 -1.0000
vn 1.0000 0.0000 0.0000
vn 0.0000 0.0000 1.0000
vn 0.0000 -1.0000 0.0000
vn 0.0000 1.0000 0.0000
s off
f 1/1/1 2/2/1 4/3/1 3/4/1
f 3/5/2 4/6/2 8/7/2 7/8/2
f 7/9/3 8/10/3 6/11/3 5/12/3
f 5/13/4 6/14/4 2/15/4 1/16/4
f 3/17/5 7/18/5 5/12/5 1/19/5
f 8/20/6 4/21/6 2/22/6 6/23/6
