# Blender v2.79 (sub 0) OBJ File: 'dungeon_arch.blend'
# www.blender.org
o Cube
v 0.500000 2.000000 0.125000
v 0.500000 2.500000 0.125000
v 0.500000 2.000000 -0.125000
v 0.500000 2.500000 -0.125000
v 2.500000 2.000000 0.125000
v 2.500000 2.500000 0.125000
v 2.500000 2.000000 -0.125000
v 2.500000 2.500000 -0.125000
v 0.500000 2.000000 -0.125000
v 0.500000 2.000000 0.125000
v 0.500000 2.500000 0.125000
v 0.500000 2.500000 -0.125000
v 0.000000 2.000000 -0.125000
v 0.000000 2.000000 0.125000
v 0.000000 2.500000 0.125000
v 0.000000 2.500000 -0.125000
v 0.500000 2.000000 -0.125000
v 0.500000 2.000000 0.125000
v 0.000000 2.000000 -0.125000
v 0.000000 2.000000 0.125000
v 0.500000 2.000000 -0.125000
v 0.500000 2.000000 0.125000
v 0.000000 2.000000 -0.125000
v 0.000000 2.000000 0.125000
v 0.500000 2.000000 -0.125000
v 0.500000 2.000000 0.125000
v 0.000000 2.000000 -0.125000
v 0.000000 2.000000 0.125000
v 0.500000 2.000000 -0.125000
v 0.500000 2.000000 0.125000
v 0.000000 2.000000 -0.125000
v 0.000000 2.000000 0.125000
v 0.500000 0.000000 -0.125000
v 0.500000 0.000000 0.125000
v 0.000000 0.000000 -0.125000
v 0.000000 0.000000 0.125000
v 3.000000 2.500000 -0.125000
v 3.000000 2.000000 -0.125000
v 3.000000 2.000000 0.125000
v 3.000000 2.500000 0.125000
v 2.500000 0.000000 0.125000
v 2.500000 0.000000 -0.125000
v 3.000000 0.000000 0.125000
v 3.000000 0.000000 -0.125000
vt 0.000041 0.000041
vt 0.000041 0.166694
vt 0.000041 0.166694
vt 0.000041 0.000041
vt 0.829676 0.819468
vt 0.829676 0.986346
vt 0.162164 0.986346
vt 0.162164 0.819468
vt 0.829676 0.986346
vt 0.829676 0.819468
vt 0.996554 0.819468
vt 0.996554 0.986346
vt 0.162164 0.986346
vt 0.162164 0.819468
vt 0.000035 0.000035
vt 0.999965 0.000035
vt 0.999965 0.125027
vt 0.000035 0.125027
vt 0.999959 0.166694
vt 0.999959 0.000041
vt 0.829676 0.819468
vt 0.829676 0.986346
vt 0.162164 0.986346
vt 0.162164 0.819468
vt 0.000000 1.000000
vt 0.000000 1.000000
vt 0.000000 0.000000
vt 0.000000 0.000000
vt 0.000000 1.000000
vt 0.000000 1.000000
vt 0.000000 0.000000
vt 1.000000 1.000000
vt 1.000000 0.000000
vt 1.000000 0.000000
vt 1.000000 1.000000
vt 0.200027 0.000045
vt 0.200027 0.999955
vt 0.000045 0.999955
vt 0.000045 0.000045
vt 0.162164 0.819468
vt 0.162164 0.986346
vt -0.004714 0.986346
vt -0.004714 0.819468
vt 0.999929 0.000071
vt 0.999929 0.500000
vt 0.000071 0.500000
vt 0.000071 0.000071
vt 0.000000 1.000000
vt 0.000000 1.000000
vt 0.000000 1.000000
vt 1.000000 1.000000
vt 1.000000 1.000000
vt 1.000000 1.000000
vt 1.000000 1.000000
vt 0.000045 0.000045
vt 0.200027 0.000045
vt 1.000000 1.000000
vt 0.000000 1.000000
vt 0.000000 0.000000
vt 0.200027 0.000045
vt 0.000045 0.000045
vt 0.000045 0.000045
vt 0.200027 0.000045
vt 0.000000 1.000000
vt 0.000000 1.000000
vt 0.000000 1.000000
vt 0.000000 0.000000
vt 0.000000 1.000000
vt 0.000000 1.000000
vt 0.000000 1.000000
vt 0.000000 1.000000
vt 0.000000 1.000000
vt 0.000000 0.000000
vt 1.000000 1.000000
vt 1.000000 1.000000
vt 0.253962 0.787338
vt 0.003987 0.787338
vt 0.003987 0.000050
vt 0.253962 0.000050
vt 0.000000 1.000000
vt 0.000000 0.000000
vt 1.000000 1.000000
vt 1.000000 1.000000
vt 0.000045 0.000045
vt 0.200027 0.000045
vt 0.999929 0.000071
vt 0.999929 0.500000
vt 0.000071 0.500000
vt 0.000071 0.000071
vt 0.125027 0.999965
vt 0.000035 0.000035
vt 0.125027 0.000035
vt 0.998103 0.787338
vt 0.748128 0.787338
vt 0.748128 0.000050
vt 0.998103 0.000050
vt 0.125027 0.999965
vt 0.000035 0.000035
vt 0.125027 0.000035
vt 0.200027 0.000045
vt 0.200027 0.999955
vt 0.000045 0.999955
vt 0.000045 0.000045
vt 0.125027 0.999965
vt 0.000035 0.999965
vt 0.000035 0.000035
vt 0.125027 0.000035
vt 0.000071 0.500000
vt 0.000071 0.000071
vt 0.999929 0.000071
vt 0.999929 0.500000
vt -0.004714 0.986346
vt -0.004714 0.819468
vt 0.000071 0.500000
vt 0.000071 0.000071
vt 0.999929 0.000071
vt 0.999929 0.500000
vt 0.125027 0.999965
vt 0.000035 0.999965
vt 0.000035 0.000035
vt 0.125027 0.000035
vt 0.253962 0.787338
vt 0.003987 0.787338
vt 0.003987 0.000050
vt 0.253962 0.000050
vt 0.998103 0.787338
vt 0.748128 0.787338
vt 0.748128 0.000050
vt 0.998103 0.000050
vn 0.0000 0.0000 1.0000
vn 0.0000 0.0000 -1.0000
vn 0.0000 -1.0000 0.0000
vn 0.0000 1.0000 0.0000
vn -1.0000 0.0000 0.0000
vn 1.0000 0.0000 0.0000
s off
f 2/1/1 4/2/1 12/3/1 11/4/1
f 3/5/2 4/6/2 8/7/2 7/8/2
f 6/9/1 5/10/1 39/11/1 40/12/1
f 5/10/1 6/9/1 2/13/1 1/14/1
f 3/15/3 7/16/3 5/17/3 1/18/3
f 8/19/4 4/2/4 2/1/4 6/20/4
f 12/21/2 9/22/2 13/23/2 16/24/2
f 3/15/1 1/25/1 10/26/1 9/27/1
f 4/28/1 3/29/1 9/30/1 12/31/1
f 1/32/1 2/33/1 11/34/1 10/35/1
f 14/36/5 15/37/5 16/38/5 13/39/5
f 10/40/1 11/41/1 15/42/1 14/43/1
f 11/44/4 12/45/4 16/46/4 15/47/4
f 13/48/1 9/30/1 17/49/1 19/50/1
f 18/51/1 20/52/1 24/53/1 22/54/1
f 14/36/1 13/39/1 19/55/1 20/56/1
f 10/35/1 14/57/1 20/52/1 18/51/1
f 9/27/1 10/26/1 18/58/1 17/59/1
f 24/60/1 23/61/1 27/62/1 28/63/1
f 20/56/1 19/55/1 23/61/1 24/60/1
f 19/50/1 17/49/1 21/64/1 23/65/1
f 17/59/1 18/58/1 22/66/1 21/67/1
f 27/68/1 25/69/1 29/70/1 31/71/1
f 23/65/1 21/64/1 25/69/1 27/68/1
f 21/67/1 22/66/1 26/72/1 25/73/1
f 22/54/1 24/53/1 28/74/1 26/75/1
f 30/76/1 32/77/1 36/78/1 34/79/1
f 25/73/1 26/72/1 30/80/1 29/81/1
f 26/75/1 28/74/1 32/82/1 30/83/1
f 28/63/1 27/62/1 31/84/1 32/85/1
f 33/86/3 34/87/3 36/88/3 35/89/3
f 32/90/5 31/71/5 35/91/5 36/92/5
f 31/93/2 29/94/2 33/95/2 35/96/2
f 29/97/6 30/80/6 34/98/6 33/99/6
f 38/100/6 37/101/6 40/102/6 39/103/6
f 5/104/5 7/105/5 42/106/5 41/107/5
f 8/108/4 6/109/4 40/110/4 37/111/4
f 7/8/2 8/7/2 37/112/2 38/113/2
f 41/114/3 42/115/3 44/116/3 43/117/3
f 38/118/6 39/119/6 43/120/6 44/121/6
f 7/122/2 38/123/2 44/124/2 42/125/2
f 39/126/1 5/127/1 41/128/1 43/129/1
